<svg width="176" height="174" viewBox="0 0 176 174" fill="none" xmlns="http://www.w3.org/2000/svg">
    <path d="M0.153072 2.23019C11.0005 27.6952 14.4929 55.2233 22.9928 81.422C30.1115 103.353 42.0475 128.255 63.1237 139.96C80.0915 149.369 94.2964 138.087 108.645 129.394C121.91 121.351 135.635 119.124 148.423 129.937C158.64 138.554 162.763 151.69 165.875 164.403C161.102 160.578 156.327 156.724 151.554 152.898C149.724 151.432 147.323 154.176 149.153 155.642C155.175 160.453 161.182 165.25 167.205 170.06C167.306 170.501 167.423 170.955 167.524 171.396C167.722 172.191 168.649 172.029 168.958 171.46C169.567 171.939 170.163 172.433 170.772 172.912C171.748 173.685 173.528 173.321 173.68 171.91C174.42 165.033 175.273 158.119 175.652 151.222C175.728 149.99 173.776 149.932 173.536 151.103C172.355 156.783 171.511 162.541 170.652 168.286C169.782 167.579 168.914 166.901 168.044 166.193C163.836 147.216 156.522 125.168 135.627 119.875C116.112 114.923 102.389 132.582 85.6557 138.619C55.5686 149.427 34.3062 103.911 26.9882 82.0222C18.0668 55.3463 14.6894 27.1609 3.61784 1.14786C2.70974 -1.00042 -0.77997 0.141343 0.158792 2.31645L0.153072 2.23019Z" fill="#F37021"/>
    </svg>
    