<svg preserveAspectRatio="none" width="100%" height="100%" overflow="visible" style="display: block;" viewBox="0 0 57 191" fill="none" xmlns="http://www.w3.org/2000/svg">
<path id="Vector" d="M56.8654 188.252C55.7661 181.084 54.7106 173.916 53.5453 166.748C53.1495 164.285 49.5216 165.363 49.8514 167.759C50.621 173.212 51.4565 178.665 52.292 184.118C23.5763 163.384 4.82089 130.029 3.5676 94.3867C2.31431 58.2832 18.805 25.5658 44.9921 1.51141C45.8936 0.697867 44.5963 -0.489486 43.6949 0.214115C14.4734 22.8393 -1.92924 61.0536 0.181566 97.7508C2.11647 131.458 19.1348 162.57 45.1681 183.546C41.1883 182.271 37.2086 180.996 33.2288 179.742C31.118 179.061 29.7548 182.271 31.7117 183.326C36.9887 186.141 42.2217 187.834 47.8945 188.537C50.0932 189.241 52.27 189.945 54.4687 190.648C56.0299 191.154 57.1073 189.615 56.8874 188.23L56.8654 188.252Z" fill="var(--fill-0, #233E94)"/>
</svg>