<svg width="177" height="96" viewBox="0 0 177 96" fill="none" xmlns="http://www.w3.org/2000/svg">
    <path d="M171.445 95.3318C165.141 91.7474 158.821 88.2041 152.541 84.558C150.381 83.3097 152.682 80.3049 154.804 81.4681C159.623 84.1325 164.419 86.8585 169.215 89.5846C160.09 55.3611 135.622 25.9396 102.773 12.0524C69.4928 -1.99948 33.0451 1.73289 1.23066 17.6144C0.149032 18.1664 -0.497341 16.5308 0.48159 15.9397C32.0434 -3.28634 73.595 -4.97532 107.124 10.0895C137.922 23.923 160.915 50.9217 171.223 82.7255C171.451 78.5527 171.68 74.3799 171.929 70.2149C172.045 67.9998 175.53 67.8717 175.818 70.0763C176.565 76.0102 176.279 81.5028 174.913 87.0533C174.785 89.3584 174.666 91.6429 174.539 93.948C174.454 95.5868 172.632 96.0441 171.416 95.3445L171.445 95.3318Z" fill="white"/>
    </svg>
    