<svg width="67" height="70" viewBox="0 0 67 70" fill="none" xmlns="http://www.w3.org/2000/svg">
    <path d="M60.1291 68.8923C58.0533 66.0789 55.9627 63.2803 53.909 60.4447C53.2019 59.4721 54.7863 58.6226 55.493 59.5506C57.0946 61.6685 58.674 63.8084 60.2535 65.9484C62.8145 49.2446 57.7301 31.5776 45.9949 19.0016C34.1023 6.26815 17.4124 0.64155 0.424504 1.22208C-0.155348 1.24702 -0.12514 0.406925 0.417217 0.344491C17.9356 -1.74129 36.4706 5.78954 48.2781 19.0131C59.1247 31.1578 64.0269 47.4773 62.4481 63.3638C63.3482 61.5939 64.2482 59.824 65.1558 58.0616C65.6314 57.1211 67.1835 57.7586 66.887 58.775C66.0767 61.505 64.8988 63.8377 63.2358 65.9806C62.7382 66.9581 62.248 67.9282 61.7504 68.9057C61.3993 69.6018 60.5129 69.4383 60.1143 68.8922L60.1291 68.8923Z" fill="white"/>
    </svg>
    