<svg width="84" height="79" viewBox="0 0 84 79" fill="none" xmlns="http://www.w3.org/2000/svg">
    <path d="M76.6684 59.852C77.8775 55.2318 78.9644 50.5703 80.0282 45.8621C80.3947 44.1997 83.2468 44.735 83.0025 46.4386C81.7342 54.9217 79.5172 63.2206 76.8463 71.3664C76.7122 73.2043 76.5373 75.0478 76.2633 76.8968C76.0252 78.4667 73.9848 79.0401 73.1744 77.5241C73.1049 77.3842 73.0181 77.2384 72.9486 77.0985C72.6288 76.9517 72.3557 76.7237 72.1821 76.3739C68.3795 69.0336 64.5768 61.6933 60.7741 54.3529C59.796 52.4698 62.7362 51.0157 63.7377 52.8874C66.9621 58.9454 70.204 65.0093 73.4343 71.0499C73.5225 70.7884 73.6107 70.527 73.6989 70.2655C76.0312 30.2246 42.5714 -4.05198 0.85174 2.97374C-0.0748348 3.12703 -0.349913 1.75288 0.553523 1.55296C40.0542 -7.30868 73.0493 23.0448 76.7092 59.8464L76.6684 59.852Z" fill="white"/>
    </svg>
    