<svg preserveAspectRatio="none" width="100%" height="100%" overflow="visible" style="display: block;" viewBox="0 0 23 23" fill="none" xmlns="http://www.w3.org/2000/svg">
<path id="whatsapp" d="M19.2969 3.35156C21.4297 5.48438 22.75 8.27734 22.75 11.3242C22.75 17.5195 17.5703 22.5977 11.3242 22.5977C9.44531 22.5977 7.61719 22.0898 5.94141 21.2266L0 22.75L1.57422 16.9102C0.609375 15.2344 0.0507812 13.3047 0.0507812 11.2734C0.0507812 5.07812 5.12891 0 11.3242 0C14.3711 0 17.2148 1.21875 19.2969 3.35156ZM11.3242 20.668C16.5039 20.668 20.8203 16.4531 20.8203 11.3242C20.8203 8.78516 19.7539 6.44922 17.9766 4.67188C16.1992 2.89453 13.8633 1.92969 11.375 1.92969C6.19531 1.92969 1.98047 6.14453 1.98047 11.2734C1.98047 13.0508 2.48828 14.7773 3.40234 16.3008L3.65625 16.6562L2.69141 20.1094L6.24609 19.1445L6.55078 19.3477C8.02344 20.2109 9.64844 20.668 11.3242 20.668ZM16.5039 13.6602C16.7578 13.8125 16.9609 13.8633 17.0117 14.0156C17.1133 14.1172 17.1133 14.6758 16.8594 15.3359C16.6055 15.9961 15.4883 16.6055 14.9805 16.6562C14.0664 16.8086 13.3555 16.7578 11.5781 15.9453C8.73438 14.7266 6.90625 11.8828 6.75391 11.7305C6.60156 11.5273 5.63672 10.207 5.63672 8.78516C5.63672 7.41406 6.34766 6.75391 6.60156 6.44922C6.85547 6.14453 7.16016 6.09375 7.36328 6.09375C7.51562 6.09375 7.71875 6.09375 7.87109 6.09375C8.07422 6.09375 8.27734 6.04297 8.53125 6.60156C8.73438 7.16016 9.34375 8.53125 9.39453 8.68359C9.44531 8.83594 9.49609 8.98828 9.39453 9.19141C8.88672 10.2578 8.27734 10.207 8.58203 10.7148C9.69922 12.5938 10.7656 13.2539 12.4414 14.0664C12.6953 14.2188 12.8477 14.168 13.0508 14.0156C13.2031 13.8125 13.7617 13.1523 13.9141 12.8984C14.1172 12.5938 14.3203 12.6445 14.5742 12.7461C14.8281 12.8477 16.1992 13.5078 16.5039 13.6602Z" fill="var(--fill-0, #01B13C)"/>
</svg>
