<svg width="56" height="69" viewBox="0 0 56 69" fill="none" xmlns="http://www.w3.org/2000/svg">
    <path d="M38.6865 29.1601C38.6865 26.2997 36.3658 23.9844 33.5053 23.9844C30.6449 23.9844 28.3242 26.3051 28.3242 29.1601C28.3242 32.0151 30.6449 34.3412 33.5053 34.3412C36.3658 34.3412 38.6865 32.0259 38.6865 29.1601Z" fill="#F37021"/>
    <path d="M55.6555 10.1949C55.6555 4.56585 51.0896 0 45.4606 0C39.8315 0 35.2656 4.56585 35.2656 10.1949C35.2656 15.824 39.8315 20.3898 45.4606 20.3898C51.0896 20.3898 55.6555 15.824 55.6555 10.1949Z" fill="#F37021"/>
    <path d="M17.5079 40.9085H26.8879L15.0576 52.2638L28.0806 68.3954H18.8194L7.46946 54.4118V68.3954H0V23.9512H7.46946V50.5853L17.5079 40.9085Z" fill="#233E94"/>
</svg>
    