<svg preserveAspectRatio="none" width="100%" height="100%" overflow="visible" style="display: block;" viewBox="0 0 29 29" fill="none" xmlns="http://www.w3.org/2000/svg">
<path id="Vector" d="M7.70693 11.107H20.9728C20.6921 9.43394 20.0283 8.11708 18.9705 7.16181C17.9127 6.20654 16.4501 5.72621 14.5773 5.72621C12.7046 5.72621 11.269 6.19574 10.0384 7.12942C8.80252 8.0685 8.02535 9.39076 7.70693 11.1016M7.52343 16.0021C7.84185 18.1933 8.72697 19.8393 10.1842 20.9295C11.636 22.0251 13.3414 22.5756 15.2951 22.5756C16.8872 22.5756 18.1825 22.2572 19.181 21.6203C20.1794 20.9835 20.9944 20.0444 21.6312 18.8139L28.2048 21.2048C27.406 22.6782 26.4615 23.9734 25.3659 25.0906C24.2703 26.2078 22.8941 27.0821 21.2426 27.7189C19.5911 28.3558 17.4863 28.6742 14.9389 28.6742C12.0677 28.6742 9.50953 28.059 7.25897 26.823C5.00842 25.5871 3.23281 23.8871 1.94293 21.7121C0.647644 19.5425 0 17.0815 0 14.3344C0 13.8163 0.0215884 13.309 0.0593674 12.8125C0.0971465 12.3159 0.156515 11.8248 0.23747 11.3499C0.793361 7.96596 2.36929 5.22429 4.95985 3.13565C7.55042 1.04162 10.794 0 14.7015 0C17.4108 0 19.8124 0.566685 21.9011 1.70005C23.9951 2.83342 25.625 4.43633 26.8015 6.50877C27.9781 8.58121 28.5664 11.0692 28.5664 13.9782V14.8471C28.5664 15.1871 28.5286 15.5757 28.4476 16.0129H7.53423L7.52343 16.0021Z" fill="var(--fill-0, white)"/>
</svg>
