<svg preserveAspectRatio="none" width="100%" height="100%" overflow="visible" style="display: block;" viewBox="0 0 55 66" fill="none" xmlns="http://www.w3.org/2000/svg">
<g id="Logo Container">
<path id="Vector" d="M37.6192 28.1361C37.6192 25.3759 35.3625 23.1417 32.581 23.1417C29.7995 23.1417 27.5428 25.3811 27.5428 28.1361C27.5428 30.8911 29.7995 33.1358 32.581 33.1358C35.3625 33.1358 37.6192 30.9015 37.6192 28.1361Z" fill="var(--fill-0, #F37021)"/>
<path id="Vector_2" d="M54.1199 9.83786C54.1199 4.40594 49.68 0 44.2063 0C38.7325 0 34.2926 4.40594 34.2926 9.83786C34.2926 15.2698 38.7325 19.6757 44.2063 19.6757C49.68 19.6757 54.1199 15.2698 54.1199 9.83786Z" fill="var(--fill-0, #F37021)"/>
<path id="Vector_3" d="M17.0247 39.4746H26.1459L14.6421 50.4327L27.3057 66H18.3L7.26333 52.5055V66H0V23.1104H7.26333V48.8129L17.0247 39.4746Z" fill="var(--fill-0, white)"/>
</g>
</svg>
