<svg preserveAspectRatio="none" width="100%" height="100%" overflow="visible" style="display: block;" viewBox="0 0 32 32" fill="none" xmlns="http://www.w3.org/2000/svg">
<path id="Vector" opacity="0" d="M8.1279 14.3398C8.1279 16.7685 8.86188 18.6898 10.3407 20.1092C11.814 21.5232 13.5465 22.2302 15.538 22.2302C16.6929 22.2302 17.8101 21.9226 18.8841 21.3019C19.9581 20.6867 20.8432 19.7908 21.5449 18.6142C22.2411 17.4377 22.5919 16.0129 22.5919 14.3398C22.5919 12.6667 22.2411 11.2419 21.5449 10.0654C20.8486 8.88884 19.9635 7.99294 18.8841 7.37769C17.8101 6.76243 16.6929 6.4494 15.538 6.4494C13.5465 6.4494 11.814 7.14561 10.3407 8.54343C8.86728 9.93586 8.1279 11.868 8.1279 14.3398ZM0 14.3398C0 11.2743 0.615255 8.67296 1.85117 6.54115C3.08708 4.40934 4.71159 2.78485 6.71927 1.67307C8.73236 0.555889 10.8912 0 13.2011 0C15.2304 0 17.0761 0.458742 18.7276 1.37623C20.3791 2.29372 21.723 3.60519 22.7592 5.32143V0.599066H30.4068V28.0859H22.7592V23.3636C21.723 25.0744 20.3791 26.3913 18.7276 27.3088C17.0761 28.2263 15.2304 28.685 13.2011 28.685C10.8912 28.685 8.72696 28.1291 6.71927 27.0119C4.70619 25.8948 3.08169 24.2649 1.85117 22.1115C0.615255 19.9581 0 17.3729 0 14.3452" fill="var(--fill-0, #233E94)"/>
</svg>
