<svg preserveAspectRatio="none" width="100%" height="100%" overflow="visible" style="display: block;" viewBox="0 0 360 116" fill="none" xmlns="http://www.w3.org/2000/svg">
<g id="Frame 1171277543" clip-path="url(#clip0_1910_1522)">
<path id="Rectangle 128" d="M0 0H360V86C360 102.569 346.569 116 330 116H30C13.4315 116 0 102.569 0 86V0Z" fill="url(#paint0_linear_1910_1522)"/>
<path id="Vector" opacity="0.2" d="M313.5 319C394.41 319 460 253.634 460 173C460 92.3664 394.41 27 313.5 27C232.59 27 167 92.3664 167 173C167 253.634 232.59 319 313.5 319Z" stroke="var(--stroke-0, black)" stroke-width="0.75" stroke-miterlimit="10"/>
<path id="Vector_2" opacity="0.2" d="M28 67C65.003 67 95 37.0031 95 0C95 -37.0031 65.003 -67 28 -67C-9.00312 -67 -39 -37.0031 -39 0C-39 37.0031 -9.00312 67 28 67Z" stroke="var(--stroke-0, black)" stroke-width="0.75" stroke-miterlimit="10"/>
</g>
<defs>
<linearGradient id="paint0_linear_1910_1522" x1="249" y1="78.9488" x2="216.599" y2="-23.0182" gradientUnits="userSpaceOnUse">
<stop stop-color="#162A6B"/>
<stop offset="1" stop-color="#233E94"/>
</linearGradient>
<clipPath id="clip0_1910_1522">
<rect width="360" height="116" fill="white"/>
</clipPath>
</defs>
</svg>
