<svg preserveAspectRatio="none" width="100%" height="100%" overflow="visible" style="display: block;" viewBox="0 0 16 16" fill="none" xmlns="http://www.w3.org/2000/svg">
<g id="Frame 1171277530">
<path id="location-dot" d="M13.159 6.0088C13.159 3.25477 10.8375 1.00147 7.99997 1.00147C5.13023 1.00147 2.8409 3.25477 2.8409 6.0088C2.8409 6.50954 3.00212 7.16675 3.3568 8.01174C3.71149 8.82543 4.19515 9.70171 4.77555 10.578C5.87185 12.2993 7.16162 13.9579 7.99997 14.9594C8.80607 13.9579 10.0958 12.2993 11.2244 10.578C11.7725 9.70171 12.2562 8.82543 12.6109 8.01174C12.9656 7.16675 13.159 6.50954 13.159 6.0088ZM14.1909 6.0088C14.1909 8.76284 10.4183 13.6137 8.74159 15.6479C8.35465 16.1174 7.61304 16.1174 7.22611 15.6479C5.58165 13.6137 1.80908 8.76284 1.80908 6.0088C1.80908 2.69144 4.58208 0 7.99997 0C11.4179 0 14.1909 2.69144 14.1909 6.0088ZM6.45225 6.0088C6.45225 6.57213 6.74244 7.04156 7.22611 7.32323C7.67753 7.60489 8.29017 7.60489 8.77383 7.32323C9.22525 7.04156 9.54769 6.57213 9.54769 6.0088C9.54769 5.47677 9.22525 5.00733 8.77383 4.72567C8.29017 4.44401 7.67753 4.44401 7.22611 4.72567C6.74244 5.00733 6.45225 5.47677 6.45225 6.0088ZM7.99997 8.51247C7.06489 8.51247 6.22654 8.04303 5.74287 7.26064C5.29146 6.50954 5.29146 5.53936 5.74287 4.75697C6.22654 4.00587 7.06489 3.50513 7.99997 3.50513C8.90281 3.50513 9.74116 4.00587 10.2248 4.75697C10.6762 5.53936 10.6762 6.50954 10.2248 7.26064C9.74116 8.04303 8.90281 8.51247 7.99997 8.51247Z" fill="var(--fill-0, #F37021)"/>
</g>
</svg>
