<svg preserveAspectRatio="none" width="100%" height="100%" overflow="visible" style="display: block;" viewBox="0 0 1440 170" fill="none" xmlns="http://www.w3.org/2000/svg">
<g id="Header" clip-path="url(#clip0_1940_1552)">
<path id="Header Background" d="M0 0H1440V130C1440 152.091 1422.09 170 1400 170H40C17.9086 170 0 152.091 0 130V0Z" fill="url(#paint0_linear_1940_1552)"/>
<path id="Vector" opacity="0.2" d="M100.584 539.168C238.425 539.168 350.167 427.65 350.167 290.084C350.167 152.519 238.425 41 100.584 41C-37.2577 41 -149 152.519 -149 290.084C-149 427.65 -37.2577 539.168 100.584 539.168Z" stroke="var(--stroke-0, black)" stroke-width="0.75" stroke-miterlimit="10"/>
<path id="Vector_2" opacity="0.2" d="M844 234C1025.15 234 1172 87.3732 1172 -93.5C1172 -274.373 1025.15 -421 844 -421C662.85 -421 516 -274.373 516 -93.5C516 87.3732 662.85 234 844 234Z" stroke="var(--stroke-0, black)" stroke-width="0.75" stroke-miterlimit="10"/>
</g>
<defs>
<linearGradient id="paint0_linear_1940_1552" x1="996" y1="115.701" x2="977.102" y2="-46.6219" gradientUnits="userSpaceOnUse">
<stop stop-color="#162A6B"/>
<stop offset="1" stop-color="#233E94"/>
</linearGradient>
<clipPath id="clip0_1940_1552">
<rect width="1440" height="170" fill="white"/>
</clipPath>
</defs>
</svg>
