<svg preserveAspectRatio="none" width="100%" height="100%" overflow="visible" style="display: block;" viewBox="0 0 8 11" fill="none" xmlns="http://www.w3.org/2000/svg">
<path id="Vector" d="M1.81339 4.63062H2.89819C4.12871 4.63062 4.90588 3.97758 4.90588 2.98454C4.90588 1.88355 4.13411 1.38163 2.94677 1.38163C2.36929 1.38163 1.99689 1.42481 1.81879 1.46798V4.63062H1.81339ZM0 0.205086C0.68542 0.0863524 1.70545 0 2.76326 0C4.20427 0 5.18112 0.237469 5.85035 0.804153C6.40085 1.2629 6.71387 1.96451 6.71387 2.80644C6.71387 4.09632 5.83956 4.97603 4.90048 5.31604V5.35921C5.61288 5.62906 6.04465 6.32528 6.29831 7.29134C6.61133 8.53804 6.87579 9.69839 7.08627 10.0816H5.20271C5.057 9.78475 4.81952 8.9698 4.53348 7.7177C4.25284 6.41163 3.7779 5.99606 2.73628 5.96368H1.81339V10.0762H0V0.199688V0.205086Z" fill="var(--fill-0, #F37021)"/>
</svg>
