<svg preserveAspectRatio="none" width="100%" height="100%" overflow="visible" style="display: block;" viewBox="0 0 32 32" fill="none" xmlns="http://www.w3.org/2000/svg">
<path id="Vector" opacity="0" d="M8.06313 16.7253C8.06313 18.5171 8.41933 19.9041 9.13714 20.881C9.85494 21.8578 11.0099 22.3435 12.602 22.3435C14.1941 22.3435 15.5488 21.8362 16.5472 20.8216C17.5403 19.807 18.0422 18.4415 18.0422 16.7307V0H25.8085V27.4869H18.0422V23.2448C17.2434 24.7182 16.1479 25.8948 14.7554 26.7691C13.363 27.6434 11.6683 28.0859 9.67684 28.0859C6.44943 28.0859 4.03157 27.1792 2.41786 25.3659C0.804156 23.5525 0 20.9565 0 17.5672V0H8.06853V16.7307L8.06313 16.7253Z" fill="var(--fill-0, #233E94)"/>
</svg>
