<svg preserveAspectRatio="none" width="100%" height="100%" overflow="visible" style="display: block;" viewBox="0 0 20 29" fill="none" xmlns="http://www.w3.org/2000/svg">
<path id="Vector" d="M15.7107 8.72693C15.1926 8.252 14.6637 7.86881 14.1294 7.59357C13.5897 7.31292 12.9258 7.1726 12.1271 7.1726C10.6537 7.1726 9.53651 7.73928 8.78093 8.87805C8.02535 10.0114 7.64756 11.5765 7.64756 13.568V28.0859H0V0.599066H7.64756V4.00457C8.4841 2.76866 9.48254 1.7918 10.6375 1.074C11.7925 0.3562 12.9852 0 14.2211 0C15.2142 0 16.1748 0.178101 17.0869 0.539699C18.0044 0.8959 18.7222 1.4356 19.2403 2.1534L15.7161 8.72693H15.7107Z" fill="var(--fill-0, white)"/>
</svg>
