<svg preserveAspectRatio="none" width="100%" height="100%" overflow="visible" style="display: block;" viewBox="0 0 25 123" fill="none" xmlns="http://www.w3.org/2000/svg">
<g id="facebook-f instagram linkedin youtube tiktok">
<path id="Vector" d="M9.64648 4.66211C12.3535 4.66211 14.5879 6.89648 14.5879 9.60352C14.5879 12.3535 12.3535 14.5449 9.64648 14.5449C6.89648 14.5449 4.70508 12.3535 4.70508 9.60352C4.70508 6.89648 6.89648 4.66211 9.64648 4.66211ZM9.64648 12.8262C11.4082 12.8262 12.8262 11.4082 12.8262 9.60352C12.8262 7.8418 11.4082 6.42383 9.64648 6.42383C7.8418 6.42383 6.42383 7.8418 6.42383 9.60352C6.42383 11.4082 7.88477 12.8262 9.64648 12.8262ZM15.9199 4.49023C15.9199 3.8457 15.4043 3.33008 14.7598 3.33008C14.1152 3.33008 13.5996 3.8457 13.5996 4.49023C13.5996 5.13477 14.1152 5.65039 14.7598 5.65039C15.4043 5.65039 15.9199 5.13477 15.9199 4.49023ZM19.1855 5.65039C19.2715 7.24023 19.2715 12.0098 19.1855 13.5996C19.0996 15.1465 18.7559 16.4785 17.6387 17.6387C16.5215 18.7559 15.1465 19.0996 13.5996 19.1855C12.0098 19.2715 7.24023 19.2715 5.65039 19.1855C4.10352 19.0996 2.77148 18.7559 1.61133 17.6387C0.494141 16.4785 0.150391 15.1465 0.0644531 13.5996C-0.0214844 12.0098 -0.0214844 7.24023 0.0644531 5.65039C0.150391 4.10352 0.494141 2.72852 1.61133 1.61133C2.77148 0.494141 4.10352 0.150391 5.65039 0.0644531C7.24023 -0.0214844 12.0098 -0.0214844 13.5996 0.0644531C15.1465 0.150391 16.5215 0.494141 17.6387 1.61133C18.7559 2.72852 19.0996 4.10352 19.1855 5.65039ZM17.123 15.2754C17.6387 14.0293 17.5098 11.0215 17.5098 9.60352C17.5098 8.22852 17.6387 5.2207 17.123 3.93164C16.7793 3.11523 16.1348 2.42773 15.3184 2.12695C14.0293 1.61133 11.0215 1.74023 9.64648 1.74023C8.22852 1.74023 5.2207 1.61133 3.97461 2.12695C3.11523 2.4707 2.4707 3.11523 2.12695 3.93164C1.61133 5.2207 1.74023 8.22852 1.74023 9.60352C1.74023 11.0215 1.61133 14.0293 2.12695 15.2754C2.4707 16.1348 3.11523 16.7793 3.97461 17.123C5.2207 17.6387 8.22852 17.5098 9.64648 17.5098C11.0215 17.5098 14.0293 17.6387 15.3184 17.123C16.1348 16.7793 16.8223 16.1348 17.123 15.2754Z" fill="var(--fill-0, black)"/>
<path id="Vector_2" d="M17.875 34.25C18.6055 34.25 19.25 34.8945 19.25 35.668V52.125C19.25 52.8984 18.6055 53.5 17.875 53.5H1.33203C0.601563 53.5 1.98121e-08 52.8984 1.98121e-08 52.125V35.668C1.98121e-08 34.8945 0.601563 34.25 1.33203 34.25H17.875ZM5.80078 50.75V41.5977H2.96484V50.75H5.80078ZM4.38281 40.3086C5.28516 40.3086 6.01563 39.5781 6.01563 38.6758C6.01563 37.7734 5.28516 37 4.38281 37C3.4375 37 2.70703 37.7734 2.70703 38.6758C2.70703 39.5781 3.4375 40.3086 4.38281 40.3086ZM16.5 50.75V45.7227C16.5 43.2734 15.9414 41.3398 13.0625 41.3398C11.6875 41.3398 10.7422 42.1133 10.3555 42.8438H10.3125V41.5977H7.60547V50.75H10.4414V46.2383C10.4414 45.0352 10.6563 43.875 12.1602 43.875C13.6211 43.875 13.6211 45.25 13.6211 46.2812V50.75H16.5Z" fill="var(--fill-0, black)"/>
<path id="Vector_3" d="M22.9883 71.1211C23.5039 72.9258 23.5039 76.793 23.5039 76.793C23.5039 76.793 23.5039 80.6172 22.9883 82.4648C22.7305 83.4961 21.9141 84.2695 20.9258 84.5273C19.0781 85 11.7734 85 11.7734 85C11.7734 85 4.42578 85 2.57813 84.5273C1.58984 84.2695 0.773438 83.4961 0.515625 82.4648C1.98121e-08 80.6172 1.98121e-08 76.793 1.98121e-08 76.793C1.98121e-08 76.793 1.98121e-08 72.9258 0.515625 71.1211C0.773438 70.0898 1.58984 69.2734 2.57813 69.0156C4.42578 68.5 11.7734 68.5 11.7734 68.5C11.7734 68.5 19.0781 68.5 20.9258 69.0156C21.9141 69.2734 22.7305 70.0898 22.9883 71.1211ZM9.36719 80.2734L15.4688 76.793L9.36719 73.3125V80.2734Z" fill="var(--fill-0, black)"/>
<path id="Vector_4" d="M19.267 109.023C17.3334 109.066 15.5288 108.465 13.9819 107.348V115.039C13.9819 117.961 12.1772 120.539 9.42719 121.57C6.72016 122.602 3.62641 121.828 1.73579 119.637C-0.197809 117.402 -0.541559 114.266 0.833441 111.688C2.20844 109.152 5.04438 107.734 7.96625 108.121V111.988C6.63422 111.559 5.17329 112.031 4.35688 113.148C3.58344 114.309 3.58344 115.812 4.39985 116.93C5.21625 118.047 6.67719 118.52 7.96625 118.09C9.29829 117.66 10.2006 116.414 10.2006 115.039V100H13.9819C13.9819 100.344 13.9819 100.645 14.0678 100.988C14.3256 102.406 15.142 103.652 16.3881 104.426C17.2045 104.984 18.2358 105.285 19.267 105.285V109.023Z" fill="var(--fill-0, black)"/>
</g>
</svg>
