<svg preserveAspectRatio="none" width="100%" height="100%" overflow="visible" style="display: block;" viewBox="0 0 120 16" fill="none" xmlns="http://www.w3.org/2000/svg">
<g id="Frame 1171277531">
<path id="Vector" d="M7.0087 4.39419C8.97551 4.39419 10.5989 6.01758 10.5989 7.98439C10.5989 9.98242 8.97551 11.5746 7.0087 11.5746C5.01067 11.5746 3.4185 9.98242 3.4185 7.98439C3.4185 6.01758 5.01067 4.39419 7.0087 4.39419ZM7.0087 10.3258C8.28868 10.3258 9.31892 9.29559 9.31892 7.98439C9.31892 6.70441 8.28868 5.67417 7.0087 5.67417C5.6975 5.67417 4.66726 6.70441 4.66726 7.98439C4.66726 9.29559 5.72871 10.3258 7.0087 10.3258ZM11.5667 4.26931C11.5667 3.80102 11.1921 3.42639 10.7238 3.42639C10.2555 3.42639 9.88086 3.80102 9.88086 4.26931C9.88086 4.7376 10.2555 5.11223 10.7238 5.11223C11.1921 5.11223 11.5667 4.7376 11.5667 4.26931ZM13.9394 5.11223C14.0018 6.26734 14.0018 9.73266 13.9394 10.8878C13.8769 12.0117 13.6272 12.9795 12.8155 13.8224C12.0038 14.6341 11.0048 14.8838 9.88086 14.9463C8.72575 15.0087 5.26043 15.0087 4.10532 14.9463C2.98143 14.8838 2.01364 14.6341 1.17072 13.8224C0.35902 12.9795 0.109267 12.0117 0.0468287 10.8878C-0.0156096 9.73266 -0.0156096 6.26734 0.0468287 5.11223C0.109267 3.98834 0.35902 2.98933 1.17072 2.17763C2.01364 1.36593 2.98143 1.11618 4.10532 1.05374C5.26043 0.9913 8.72575 0.9913 9.88086 1.05374C11.0048 1.11618 12.0038 1.36593 12.8155 2.17763C13.6272 2.98933 13.8769 3.98834 13.9394 5.11223ZM12.4408 12.1053C12.8155 11.2 12.7218 9.01462 12.7218 7.98439C12.7218 6.98538 12.8155 4.80004 12.4408 3.86346C12.1911 3.2703 11.7228 2.77079 11.1296 2.55226C10.1931 2.17763 8.00771 2.27129 7.0087 2.27129C5.97847 2.27129 3.79313 2.17763 2.88777 2.55226C2.26339 2.80201 1.7951 3.2703 1.54535 3.86346C1.17072 4.80004 1.26438 6.98538 1.26438 7.98439C1.26438 9.01462 1.17072 11.2 1.54535 12.1053C1.7951 12.7297 2.26339 13.198 2.88777 13.4477C3.79313 13.8224 5.97847 13.7287 7.0087 13.7287C8.00771 13.7287 10.1931 13.8224 11.1296 13.4477C11.7228 13.198 12.2223 12.7297 12.4408 12.1053Z" fill="var(--fill-0, black)"/>
<path id="Vector_2" d="M46.9733 1.00691C47.5041 1.00691 47.9724 1.4752 47.9724 2.03714V13.9941C47.9724 14.556 47.5041 14.9931 46.9733 14.9931H34.954C34.4232 14.9931 33.9862 14.556 33.9862 13.9941V2.03714C33.9862 1.4752 34.4232 1.00691 34.954 1.00691H46.9733ZM38.2008 12.9951V6.34538H36.1403V12.9951H38.2008ZM37.1705 5.40881C37.8261 5.40881 38.3569 4.87808 38.3569 4.22248C38.3569 3.56688 37.8261 3.00494 37.1705 3.00494C36.4837 3.00494 35.953 3.56688 35.953 4.22248C35.953 4.87808 36.4837 5.40881 37.1705 5.40881ZM45.9743 12.9951V9.34242C45.9743 7.56293 45.5685 6.15807 43.4768 6.15807C42.4778 6.15807 41.791 6.72001 41.51 7.25074H41.4788V6.34538H39.512V12.9951H41.5724V9.71705C41.5724 8.84292 41.7285 8 42.8212 8C43.8827 8 43.8827 8.99901 43.8827 9.74827V12.9951H45.9743Z" fill="var(--fill-0, black)"/>
<path id="Vector_3" d="M84.6746 3.91029C85.0492 5.2215 85.0492 8.03122 85.0492 8.03122C85.0492 8.03122 85.0492 10.8097 84.6746 12.1521C84.4873 12.9014 83.8941 13.4634 83.1761 13.6507C81.8337 13.9941 76.5264 13.9941 76.5264 13.9941C76.5264 13.9941 71.1879 13.9941 69.8455 13.6507C69.1275 13.4634 68.5343 12.9014 68.347 12.1521C67.9724 10.8097 67.9724 8.03122 67.9724 8.03122C67.9724 8.03122 67.9724 5.2215 68.347 3.91029C68.5343 3.16103 69.1275 2.56787 69.8455 2.38055C71.1879 2.00592 76.5264 2.00592 76.5264 2.00592C76.5264 2.00592 81.8337 2.00592 83.1761 2.38055C83.8941 2.56787 84.4873 3.16103 84.6746 3.91029ZM74.7781 10.56L79.2113 8.03122L74.7781 5.50247V10.56Z" fill="var(--fill-0, black)"/>
<path id="Vector_4" d="M119.048 6.55602C117.643 6.58724 116.332 6.15017 115.208 5.33847V10.9267C115.208 13.0496 113.897 14.9228 111.899 15.672C109.932 16.4213 107.684 15.8593 106.31 14.2672C104.906 12.6438 104.656 10.3648 105.655 8.49161C106.654 6.64968 108.714 5.61945 110.837 5.90042V8.71014C109.869 8.39795 108.808 8.74136 108.215 9.55306C107.653 10.396 107.653 11.4886 108.246 12.3003C108.839 13.112 109.901 13.4555 110.837 13.1433C111.805 12.8311 112.461 11.9257 112.461 10.9267V0H115.208C115.208 0.249753 115.208 0.468287 115.27 0.71804C115.458 1.74827 116.051 2.65363 116.956 3.21557C117.549 3.62142 118.299 3.83996 119.048 3.83996V6.55602Z" fill="var(--fill-0, black)"/>
</g>
</svg>
