<svg preserveAspectRatio="none" width="100%" height="100%" overflow="visible" style="display: block;" viewBox="0 0 32 32" fill="none" xmlns="http://www.w3.org/2000/svg">
<path id="Vector" opacity="0" d="M8.71209 8.36499C9.72133 7.18844 11.1084 6.41128 12.8624 6.03349C14.6866 5.63951 16.2247 5.80142 17.4552 6.51382C18.6858 7.23162 19.614 8.37038 20.2347 9.9517L7.26569 12.7419C7.21712 10.9933 7.69745 9.54153 8.70669 8.36499M22.183 18.2955C21.8268 19.2129 21.3249 19.9739 20.6934 20.6054C19.8569 21.4365 18.6534 22.0194 17.1044 22.3594C15.1939 22.7642 13.4129 22.5915 11.7668 21.8197C10.1153 21.0533 8.89559 19.6339 8.12921 17.5615L28.5731 13.1575C28.5623 12.715 28.5191 12.3264 28.4489 11.9972L28.2708 11.1444C27.6556 8.30562 26.56 5.99031 24.9733 4.2201C23.392 2.43909 21.4544 1.21397 19.1769 0.539349C16.894 -0.124481 14.4221 -0.178449 11.7722 0.393632C7.9619 1.20858 5.00434 2.91403 2.9157 5.50458C0.816265 8.10593 -0.144402 11.1121 0.0175083 14.5391C0.0390963 15.0249 0.0822724 15.516 0.152433 16.0125C0.217198 16.5037 0.30355 17.011 0.41149 17.5129C0.98897 20.2006 2.14393 22.4673 3.86557 24.3185C5.58722 26.1697 7.67586 27.4595 10.1423 28.1935C12.5979 28.9221 15.2371 28.9923 18.0381 28.3878C20.5261 27.8589 22.5176 27.0979 24.0018 26.1319C25.4806 25.1604 26.6463 24.0163 27.4829 22.694C28.3194 21.3717 28.9725 19.9146 29.442 18.3008H22.1938L22.183 18.2955Z" fill="var(--fill-0, #F37021)"/>
</svg>
