<svg preserveAspectRatio="none" width="100%" height="100%" overflow="visible" style="display: block;" viewBox="0 0 32 32" fill="none" xmlns="http://www.w3.org/2000/svg">
<path id="Vector" opacity="0" d="M1.8134 4.86809C2.03467 4.92745 2.3315 4.94364 2.7039 4.94364C4.06934 4.94364 4.90048 4.27442 4.90048 3.10327C4.90048 1.93212 4.12871 1.39782 2.86581 1.39782C2.35849 1.39782 2.00229 1.441 1.8134 1.48417V4.87348V4.86809ZM0 0.205086C0.653038 0.0863524 1.55973 0 2.79025 0C4.12871 0 5.10557 0.280645 5.74781 0.814947C6.34148 1.30607 6.73007 2.09403 6.73007 3.02771C6.73007 3.96139 6.43323 4.76554 5.86655 5.29985C5.13795 6.02844 3.99378 6.36845 2.7039 6.36845C2.36389 6.36845 2.05086 6.35226 1.8134 6.30908V10.0816H0V0.205086Z" fill="var(--fill-0, #F37021)"/>
</svg>
