<svg preserveAspectRatio="none" width="100%" height="100%" overflow="visible" style="display: block;" viewBox="0 0 41 50" fill="none" xmlns="http://www.w3.org/2000/svg">
<g id="Group 88">
<path id="Vector" d="M28.4994 21.3174C28.4994 19.2263 26.7898 17.5337 24.6826 17.5337C22.5754 17.5337 20.8658 19.2302 20.8658 21.3174C20.8658 23.4045 22.5754 25.105 24.6826 25.105C26.7898 25.105 28.4994 23.4124 28.4994 21.3174Z" fill="var(--fill-0, #F37021)"/>
<path id="Vector_2" d="M41 7.45293C41 3.33784 37.6364 0 33.4896 0C29.3429 0 25.9793 3.33784 25.9793 7.45293C25.9793 11.568 29.3429 14.9059 33.4896 14.9059C37.6364 14.9059 41 11.568 41 7.45293Z" fill="var(--fill-0, #F37021)"/>
<path id="Vector_3" d="M12.8976 29.9058H19.8076L11.0926 38.207L20.6863 49.9999H13.8637L5.50255 39.7773V49.9999H0V17.5093H5.50255V36.98L12.8976 29.9058Z" fill="var(--fill-0, #233E94)"/>
</g>
</svg>
