<svg preserveAspectRatio="none" width="100%" height="100%" overflow="visible" style="display: block;" viewBox="0 0 32 32" fill="none" xmlns="http://www.w3.org/2000/svg">
<path id="Vector" opacity="0" d="M8.54382 9.64982C7.90698 9.88729 6.65487 10.2165 5.32181 10.2165C3.62715 10.2165 2.35346 9.78474 1.39819 8.87805C0.507682 8.03072 -0.0158261 6.70846 0.000364884 5.1973C0.000364884 2.03467 2.25631 0 5.57008 0C6.80059 0 7.76666 0.253659 8.2308 0.474936L7.83142 1.94831C7.28093 1.71085 6.6117 1.51656 5.55928 1.51656C3.42207 1.51656 1.9217 2.77945 1.9217 5.11095C1.9217 7.44245 3.31952 8.73233 5.39737 8.73233C6.05041 8.73233 6.54154 8.64058 6.779 8.52185V6.02844H5.01418V4.58744H8.54922V9.64982H8.54382Z" fill="var(--fill-0, #F37021)"/>
</svg>
