<svg preserveAspectRatio="none" width="100%" height="100%" overflow="visible" style="display: block;" viewBox="0 0 16 16" fill="none" xmlns="http://www.w3.org/2000/svg">
<path id="phone" d="M11.7216 8.60639L15.2225 10.1038C15.7851 10.3222 16.0977 10.9149 15.9726 11.5077L15.2225 15.0017C15.0974 15.5632 14.5973 16 14.0034 16C13.7846 16 13.5971 15.9688 13.4095 15.9688C13.2845 15.9688 13.1282 15.9688 13.0032 15.9376C5.72014 15.4385 0 9.38631 0 1.9927C0 1.43116 0.406349 0.900819 0.968986 0.776032L4.46984 0.0273124C5.06373 -0.0974742 5.65763 0.214492 5.87643 0.776032L7.37679 4.27006C7.5956 4.7692 7.47057 5.36194 7.03296 5.7051L5.7514 6.76579C6.59535 8.20084 7.78314 9.38631 9.22099 10.2286L10.2838 8.94956C10.6276 8.5128 11.2215 8.38802 11.7216 8.60639ZM13.9721 14.9705C14.0972 14.9705 14.191 14.9081 14.2222 14.7833L14.9724 11.2893C15.0036 11.1645 14.9411 11.0709 14.8474 11.0085L11.3465 9.5111C11.2215 9.4799 11.1277 9.5111 11.0339 9.57349L10.0024 10.8526C9.68986 11.2269 9.15848 11.3205 8.72087 11.0709C7.12673 10.1662 5.81391 8.85597 4.90744 7.26494C4.65738 6.82818 4.75116 6.29784 5.12625 5.98587L6.40781 4.95638C6.47032 4.86279 6.50158 4.7692 6.47032 4.64442L4.96996 1.15039C4.90744 1.0568 4.81367 0.994409 4.68864 1.02561L1.18779 1.77433C1.06276 1.77433 1.00024 1.89911 1.00024 1.9927C1.00024 9.16793 6.81416 14.9705 13.9721 14.9705Z" fill="var(--fill-0, #F37021)"/>
</svg>
