<svg preserveAspectRatio="none" width="100%" height="100%" overflow="visible" style="display: block;" viewBox="0 0 228 873" fill="none" xmlns="http://www.w3.org/2000/svg">
<path id="Vector 24" d="M1.50027 871L196.675 834.872C215.631 831.363 224.929 809.709 214.418 793.548C209.473 785.947 208.67 776.372 212.277 768.053L219.6 751.163C224.002 741.011 224.002 729.49 219.6 719.338L213.4 705.038C208.998 694.886 208.998 683.365 213.4 673.213L219.6 658.913C224.002 648.761 224.002 637.24 219.6 627.088L213.4 612.788C208.998 602.636 208.998 591.115 213.4 580.963L219.6 566.663C224.002 556.511 224.002 544.99 219.6 534.838L213.639 521.088C209.098 510.616 209.247 498.702 214.05 488.347L218.9 477.888C223.732 467.47 223.853 455.477 219.231 444.963L213.914 432.866C209.209 422.163 209.423 409.937 214.498 399.404L217.975 392.191C223.352 381.033 223.257 368.014 217.718 356.936L214.164 349.828C209.27 340.04 208.6 328.674 212.31 318.379L220.916 294.496C224.493 284.57 224.004 273.633 219.554 264.066L215.081 254.448C209.703 242.887 210.31 229.429 216.704 218.399C222.871 207.762 223.667 194.841 218.852 183.528L213.887 171.86C209.21 160.868 209.69 148.36 215.197 137.758L217.576 133.18C223.213 122.329 223.577 109.496 218.564 98.3427L212.492 84.8325C208.623 76.2228 207.923 66.5221 210.516 57.4461L226.5 1.50039" stroke="var(--stroke-0, #F37700)" stroke-width="3" stroke-linecap="round" stroke-dasharray="10 10"/>
</svg>
